<svg width="31" height="25" viewBox="0 0 31 25" fill="none" xmlns="http://www.w3.org/2000/svg">
<path d="M19.7271 12.5C21.2813 12.4364 22.7476 11.7427 23.8042 10.5711C24.8609 9.39941 25.4216 7.84544 25.3635 6.25C25.4216 4.65456 24.8609 3.10059 23.8042 1.92893C22.7476 0.757272 21.2813 0.0635784 19.7271 0C18.1728 0.0635784 16.7065 0.757272 15.6499 1.92893C14.5933 3.10059 14.0325 4.65456 14.0906 6.25C14.0325 7.84544 14.5933 9.39941 15.6499 10.5711C16.7065 11.7427 18.1728 12.4364 19.7271 12.5V12.5ZM19.7271 3.125C20.5035 3.159 21.2354 3.5065 21.7633 4.09181C22.2913 4.67712 22.5726 5.45283 22.5459 6.25C22.5726 7.04698 22.2915 7.82253 21.7637 8.40781C21.236 8.99309 20.5044 9.34071 19.7282 9.375C18.9518 9.341 18.2199 8.9935 17.6919 8.40819C17.164 7.82288 16.8827 7.04717 16.9094 6.25C16.8827 5.45302 17.1638 4.67747 17.6915 4.09219C18.2192 3.50691 18.9508 3.15929 19.7271 3.125V3.125ZM19.7271 15.625C15.9628 15.625 8.45414 17.7193 8.45414 21.875V25H31V21.875C31 17.7193 23.4891 15.625 19.7271 15.625ZM11.2729 21.875C11.5829 20.75 15.9373 18.75 19.7271 18.75C23.5168 18.75 27.9 20.7659 28.1812 21.875H11.2729ZM7.04586 17.1875V12.5H11.2729V9.375H7.04586V4.6875H4.22707V9.375H0V12.5H4.22707V17.1875H7.04586Z" fill="#111111"/>
</svg>
