<svg width="45" height="45" viewBox="0 0 45 45" fill="none" xmlns="http://www.w3.org/2000/svg">
<path d="M37.1773 11.4409H33.1773C33.4795 10.615 33.5763 9.72804 33.4594 8.85642C33.3425 7.98479 33.0154 7.15466 32.5063 6.43756C31.9973 5.72045 31.3215 5.13789 30.5372 4.74005C29.7529 4.34222 28.8836 4.14106 28.0043 4.1539C27.0964 4.15391 26.2026 4.37842 25.4025 4.80745C24.6023 5.23647 23.9207 5.8567 23.4183 6.6129L22.5003 7.8339L21.5833 6.5949C21.0769 5.8437 20.3938 5.22829 19.594 4.80269C18.7943 4.37709 17.9023 4.15431 16.9963 4.1539C16.117 4.14106 15.2477 4.34222 14.4634 4.74005C13.6791 5.13789 13.0033 5.72045 12.4942 6.43756C11.9852 7.15466 11.6581 7.98479 11.5412 8.85642C11.4243 9.72804 11.5211 10.615 11.8233 11.4409H7.8233C7.34358 11.4379 6.86802 11.53 6.42414 11.7119C5.98027 11.8939 5.57688 12.1621 5.23734 12.501C4.8978 12.8399 4.62884 13.2427 4.44602 13.6863C4.26321 14.1298 4.17017 14.6052 4.1723 15.0849L4.1543 35.1249C4.15429 35.6055 4.24936 36.0814 4.43405 36.5252C4.61874 36.9689 4.88939 37.3718 5.23042 37.7105C5.57145 38.0492 5.97612 38.3171 6.42112 38.4987C6.86612 38.6804 7.34266 38.7722 7.8233 38.7689H37.1773C37.6579 38.7722 38.1345 38.6804 38.5795 38.4987C39.0245 38.3171 39.4291 38.0492 39.7702 37.7105C40.1112 37.3718 40.3819 36.9689 40.5665 36.5252C40.7512 36.0814 40.8463 35.6055 40.8463 35.1249V15.0849C40.8463 14.6042 40.7512 14.1283 40.5665 13.6846C40.3819 13.2409 40.1112 12.838 39.7702 12.4993C39.4291 12.1606 39.0245 11.8927 38.5795 11.7111C38.1345 11.5294 37.6579 11.4376 37.1773 11.4409ZM28.0043 7.7979C28.3641 7.80047 28.7151 7.9095 29.013 8.11126C29.3109 8.31302 29.5424 8.59846 29.6783 8.93161C29.8142 9.26476 29.8485 9.63068 29.7767 9.98326C29.7049 10.3358 29.5304 10.6593 29.2751 10.9128C29.0197 11.1663 28.6951 11.3385 28.342 11.4078C27.9889 11.477 27.6232 11.4402 27.2911 11.3019C26.9589 11.1637 26.6751 10.9301 26.4755 10.6308C26.2758 10.3314 26.1693 9.9797 26.1693 9.6199C26.1725 9.1354 26.3672 8.67184 26.711 8.33046C27.0549 7.98908 27.5198 7.79762 28.0043 7.7979ZM16.9963 7.7979C17.3561 7.80047 17.7071 7.9095 18.005 8.11126C18.3029 8.31302 18.5344 8.59846 18.6703 8.93161C18.8062 9.26476 18.8405 9.63068 18.7687 9.98326C18.6969 10.3358 18.5224 10.6593 18.2671 10.9128C18.0117 11.1663 17.6871 11.3385 17.334 11.4078C16.9809 11.477 16.6152 11.4402 16.2831 11.3019C15.9509 11.1637 15.6671 10.9301 15.4675 10.6308C15.2678 10.3314 15.1613 9.9797 15.1613 9.6199C15.1645 9.1354 15.3592 8.67184 15.703 8.33046C16.0469 7.98908 16.5118 7.79762 16.9963 7.7979ZM37.1773 35.1249H7.8233V31.4819H37.1773V35.1249ZM37.1773 26.0159H7.8233V15.0849H17.1433L13.3273 20.2409L16.2993 22.3729L20.6653 16.4729L22.5003 13.9949L24.3353 16.4729L28.7013 22.3729L31.6733 20.2409L27.8543 15.0849H37.1743L37.1773 26.0159Z" fill="white"/>
</svg>
