<svg width="45" height="45" viewBox="0 0 45 45" fill="none" xmlns="http://www.w3.org/2000/svg">
<path d="M37.1773 11.4419H33.1773C33.4795 10.616 33.5763 9.72901 33.4594 8.85739C33.3425 7.98577 33.0154 7.15564 32.5063 6.43854C31.9973 5.72143 31.3215 5.13886 30.5372 4.74103C29.7529 4.3432 28.8836 4.14203 28.0043 4.15488C27.0964 4.15488 26.2026 4.3794 25.4025 4.80842C24.6023 5.23745 23.9207 5.85767 23.4183 6.61388L22.5003 7.83488L21.5833 6.59588C21.0769 5.84467 20.3938 5.22927 19.594 4.80366C18.7943 4.37806 17.9023 4.15528 16.9963 4.15488C16.117 4.14203 15.2477 4.3432 14.4634 4.74103C13.6791 5.13886 13.0033 5.72143 12.4942 6.43854C11.9852 7.15564 11.6581 7.98577 11.5412 8.85739C11.4243 9.72901 11.5211 10.616 11.8233 11.4419H7.8233C7.34358 11.4388 6.86802 11.531 6.42414 11.7129C5.98027 11.8949 5.57688 12.1631 5.23734 12.502C4.8978 12.8408 4.62884 13.2437 4.44602 13.6872C4.26321 14.1308 4.17017 14.6062 4.1723 15.0859L4.1543 35.1259C4.15429 35.6065 4.24936 36.0824 4.43405 36.5262C4.61874 36.9699 4.88939 37.3727 5.23042 37.7115C5.57145 38.0502 5.97612 38.3181 6.42112 38.4997C6.86612 38.6814 7.34266 38.7732 7.8233 38.7699H37.1773C37.6579 38.7732 38.1345 38.6814 38.5795 38.4997C39.0245 38.3181 39.4291 38.0502 39.7702 37.7115C40.1112 37.3727 40.3819 36.9699 40.5665 36.5262C40.7512 36.0824 40.8463 35.6065 40.8463 35.1259V15.0859C40.8463 14.6052 40.7512 14.1293 40.5665 13.6856C40.3819 13.2418 40.1112 12.839 39.7702 12.5003C39.4291 12.1616 39.0245 11.8937 38.5795 11.712C38.1345 11.5304 37.6579 11.4386 37.1773 11.4419ZM28.0043 7.79888C28.3641 7.80144 28.7151 7.91048 29.013 8.11224C29.3109 8.314 29.5424 8.59944 29.6783 8.93259C29.8142 9.26573 29.8485 9.63166 29.7767 9.98423C29.7049 10.3368 29.5304 10.6602 29.2751 10.9137C29.0197 11.1673 28.6951 11.3395 28.342 11.4088C27.9889 11.478 27.6232 11.4412 27.2911 11.3029C26.9589 11.1646 26.6751 10.9311 26.4755 10.6318C26.2758 10.3324 26.1693 9.98068 26.1693 9.62088C26.1725 9.13638 26.3672 8.67282 26.711 8.33144C27.0549 7.99006 27.5198 7.7986 28.0043 7.79888ZM16.9963 7.79888C17.3561 7.80144 17.7071 7.91048 18.005 8.11224C18.3029 8.314 18.5344 8.59944 18.6703 8.93259C18.8062 9.26573 18.8405 9.63166 18.7687 9.98423C18.6969 10.3368 18.5224 10.6602 18.2671 10.9137C18.0117 11.1673 17.6871 11.3395 17.334 11.4088C16.9809 11.478 16.6152 11.4412 16.2831 11.3029C15.9509 11.1646 15.6671 10.9311 15.4675 10.6318C15.2678 10.3324 15.1613 9.98068 15.1613 9.62088C15.1645 9.13638 15.3592 8.67282 15.703 8.33144C16.0469 7.99006 16.5118 7.7986 16.9963 7.79888ZM37.1773 35.1259H7.8233V31.4829H37.1773V35.1259ZM37.1773 26.0169H7.8233V15.0859H17.1433L13.3273 20.2419L16.2993 22.3739L20.6653 16.4739L22.5003 13.9959L24.3353 16.4739L28.7013 22.3739L31.6733 20.2419L27.8543 15.0859H37.1743L37.1773 26.0169Z" fill="white"/>
</svg>
