<svg width="41" height="30" viewBox="0 0 41 30" fill="none" xmlns="http://www.w3.org/2000/svg">
<path d="M20.5 29C21.2943 29.0299 22.0682 28.7449 22.6535 28.207C23.2387 27.6692 23.5879 26.922 23.625 26.128H17.375C17.4095 26.9229 17.7579 27.6717 18.3438 28.2101C18.9296 28.7485 19.705 29.0325 20.5 29ZM29.875 20.385V13.205C29.9723 11.1037 29.3182 9.03632 28.0298 7.37341C26.7414 5.7105 24.903 4.5607 22.844 4.13001V3.15401C22.8185 2.55763 22.5574 1.99576 22.1178 1.59186C21.6783 1.18796 21.0964 0.975085 20.5 1.00001C19.9036 0.975085 19.3217 1.18796 18.8822 1.59186C18.4426 1.99576 18.1815 2.55763 18.156 3.15401V4.13001C13.672 5.10601 11.125 8.78201 11.125 13.205V20.384L8 23.256V24.692H33V23.256L29.875 20.385Z" fill="white"/>
<path d="M32 19C36.9706 19 41 14.9706 41 10C41 5.02944 36.9706 1 32 1C27.0294 1 23 5.02944 23 10C23 14.9706 27.0294 19 32 19Z" fill="#DF2F2F"/>
<path d="M31.9132 14.099C31.4805 14.099 31.0515 14.0367 30.6262 13.912C30.2008 13.7873 29.8305 13.604 29.5152 13.362C29.3978 13.274 29.3282 13.1787 29.3062 13.076C29.2915 12.966 29.3062 12.867 29.3502 12.779C29.4015 12.691 29.4785 12.636 29.5812 12.614C29.6838 12.5847 29.7975 12.6103 29.9222 12.691C30.2448 12.9037 30.5675 13.0577 30.8902 13.153C31.2128 13.2483 31.5465 13.296 31.8912 13.296C32.4485 13.296 32.8738 13.175 33.1672 12.933C33.4678 12.6837 33.6182 12.3207 33.6182 11.844C33.6182 11.3893 33.4678 11.0447 33.1672 10.81C32.8665 10.5753 32.4302 10.458 31.8582 10.458H31.0772C30.7912 10.458 30.6482 10.326 30.6482 10.062C30.6482 9.80533 30.7912 9.677 31.0772 9.677H31.7812C32.2798 9.677 32.6722 9.54867 32.9582 9.292C33.2515 9.028 33.3982 8.66867 33.3982 8.214C33.3982 7.81067 33.2625 7.499 32.9912 7.279C32.7272 7.059 32.3495 6.949 31.8582 6.949C31.5208 6.949 31.2055 6.99667 30.9122 7.092C30.6262 7.18733 30.3402 7.34867 30.0542 7.576C29.9442 7.65667 29.8378 7.686 29.7352 7.664C29.6398 7.642 29.5628 7.59067 29.5042 7.51C29.4528 7.422 29.4345 7.323 29.4492 7.213C29.4712 7.103 29.5408 7.004 29.6582 6.916C29.9442 6.674 30.2852 6.487 30.6812 6.355C31.0772 6.21567 31.4878 6.146 31.9132 6.146C32.6612 6.146 33.2442 6.322 33.6622 6.674C34.0875 7.026 34.3002 7.51367 34.3002 8.137C34.3002 8.56967 34.1902 8.951 33.9702 9.281C33.7502 9.60367 33.4458 9.83833 33.0572 9.985C33.5192 10.1097 33.8785 10.3407 34.1352 10.678C34.3918 11.008 34.5202 11.4187 34.5202 11.91C34.5202 12.5773 34.2855 13.109 33.8162 13.505C33.3542 13.901 32.7198 14.099 31.9132 14.099Z" fill="white"/>
</svg>
